<svg width="492" height="334" viewBox="0 0 492 334" fill="none" xmlns="http://www.w3.org/2000/svg">
<path d="M71.6018 94.8183C46.6066 116.498 37.5102 165.623 82.5728 194.341L262.35 312.508L175.18 121.185C156.915 76.0375 106.943 66.1938 71.6018 94.8268" stroke="white" stroke-opacity="0.3" stroke-miterlimit="10"/>
<path d="M226.357 1.79472C197.131 2.36773 153.255 35.7045 172.778 86.6163L262.931 290.323L294.612 76.0628C301.95 22.8248 259.895 -1.75447 226.357 1.79472Z" stroke="white" stroke-opacity="0.3" stroke-miterlimit="10"/>
<path d="M308.69 67.8874H325.74C325.74 67.8874 334.845 67.8874 336.086 72.0011C329.373 77.2522 311.118 77.9107 313.546 105.945L342.201 290.29L431.737 86.0525C450.046 40.4517 411.607 2.35981 377.507 1.1967C375.918 1.08552 374.311 1 372.659 1C342.049 1 306.976 22.3123 308.69 67.8874Z" stroke="white" stroke-opacity="0.3" stroke-miterlimit="10"/>
<path d="M428.131 122.914L343.442 311.945L492 214M488.244 79.1865C465.9 79.1865 441.994 90.5354 428.139 122.914" stroke="white" stroke-opacity="0.3" stroke-miterlimit="10"/>
<path d="M492.5 228L334.265 333H491" stroke="white" stroke-opacity="0.3" stroke-miterlimit="10"/>
<path d="M66.7632 332.999H271.518L102.694 220.049C63.6924 196.043 19.8348 210.086 3.99864 249.931C-9.41839 295.54 24.084 332.999 66.7632 332.999Z" stroke="white" stroke-opacity="0.3" stroke-miterlimit="10"/>
</svg>
