<?xml version="1.0" encoding="UTF-8"?>
<svg xmlns="http://www.w3.org/2000/svg" version="1.1" viewBox="0 0 3200 1508.7">
  <defs>
    <style>
      .cls-1 {
        fill: none;
        stroke: #fff;
        stroke-miterlimit: 10;
        stroke-opacity: .3;
      }
    </style>
  </defs>
  <!-- Generator: Adobe Illustrator 28.6.0, SVG Export Plug-In . SVG Version: 1.2.0 Build 709)  -->
  <g>
    <g id="Layer_1">
      <path class="cls-1" d="M97,1535L-.6,1321.6"/>
      <path class="cls-1" d="M-3.8,1276.2l118.2,267,41.5-280.9c9.6-69.8-45.5-102-89.5-97.4-22.9.4-52.6,16.2-67.4,43"/>
      <path class="cls-1" d="M174.4,1251.7h22.4s11.9,0,13.6,5.4c-8.8,6.9-32.7,7.7-29.5,44.5l37.6,241.7,117.4-267.7c24-59.8-26.4-109.7-71.1-111.2-2.1-.1-4.2-.3-6.4-.3-40.1,0-86.1,27.9-83.9,87.7Z"/>
      <path class="cls-1" d="M331,1323.8l-111,247.8,235.6-155.7c54.3-36.9,45.5-95.9,15.2-125.1-12.7-13.7-36.1-24.3-60.9-24.3s-60.6,14.9-78.8,57.3"/>
      <path class="cls-1" d="M429.2,1451.2l-221.3,148.1h272.4c55.9,0,91.8-55.2,75.8-105.9-10.7-31.9-42.3-56.8-79.1-56.9-15.5,0-31.9,4.5-48,14.7"/>
    </g>
  </g>
</svg>