<svg width="209" height="246" viewBox="0 0 209 246" fill="none" xmlns="http://www.w3.org/2000/svg">
<path d="M0.75979 50.4094H12.7539C12.7539 50.4094 19.1591 50.4094 20.0319 53.4289C15.3097 57.2832 2.46785 57.7665 4.17591 78.3438L24.3335 213.653L87.3181 63.7426C100.198 30.2716 73.1575 2.31207 49.1694 1.45834C48.0516 1.37674 46.9213 1.31396 45.7596 1.31396C24.2267 1.31396 -0.445898 16.9572 0.75979 50.4094Z" stroke="white" stroke-opacity="0.3" stroke-miterlimit="10"/>
<path d="M84.7813 90.798L25.2065 229.547L151.634 142.354C180.778 121.689 176.074 88.6511 159.766 72.3236C152.928 64.6401 140.369 58.7017 127.068 58.7017C111.35 58.7017 94.5336 67.0318 84.7876 90.798" stroke="white" stroke-opacity="0.3" stroke-miterlimit="10"/>
<path d="M137.48 162.097L18.751 245.002H164.947C194.938 245.002 214.217 214.086 205.645 185.719C199.905 167.885 182.925 153.892 163.22 153.867C154.925 153.867 146.127 156.366 137.486 162.097" stroke="white" stroke-opacity="0.3" stroke-miterlimit="10"/>
<mask id="mask0_1392_645" style="mask-type:alpha" maskUnits="userSpaceOnUse" x="37" y="37" width="171" height="157">
<rect x="37" y="37" width="171" height="157" fill="#D9D9D9"/>
</mask>
<g mask="url(#mask0_1392_645)">
</g>
</svg>
